<svg width="147" height="131" viewBox="0 0 147 131" fill="none" xmlns="http://www.w3.org/2000/svg">
<circle cx="8" cy="103" r="8" fill="url(#paint0_linear_2054_55)" fill-opacity="0.5"/>
<circle cx="120" cy="123" r="8" fill="url(#paint1_linear_2054_55)" fill-opacity="0.5"/>
<circle cx="89" cy="58" r="58" fill="url(#paint2_linear_2054_55)" fill-opacity="0.5"/>
<g clip-path="url(#clip0_2054_55)">
<path d="M22.4402 80.3373L22.8628 31.0597C22.9229 24.0576 28.5908 18.4444 35.5432 18.5017L80.1063 18.869C87.0587 18.9263 92.6296 24.6322 92.5695 31.6343L92.1469 80.912L22.4402 80.3373Z" fill="url(#paint3_linear_2054_55)"/>
<path d="M92.0325 93.1038L91.888 109.951C91.828 116.953 86.16 122.566 79.2077 122.509L34.6445 122.141C27.6921 122.084 22.1213 116.378 22.1813 109.376L22.3258 92.5291L92.0325 93.1038ZM57.2074 112.376C60.5268 112.404 63.2683 109.715 63.2972 106.345C63.3258 103.002 60.6572 100.243 57.3117 100.215C53.9924 100.188 51.2509 102.877 51.222 106.246C51.1931 109.615 53.8619 112.349 57.2074 112.376Z" fill="url(#paint4_linear_2054_55)"/>
</g>
<g filter="url(#filter0_b_2054_55)">
<rect width="77.332" height="103.57" rx="6.45508" transform="matrix(-0.965495 -0.259842 -0.256781 0.966625 130.824 30.4514)" fill="url(#paint5_linear_2054_55)"/>
<rect x="-0.71009" y="0.410611" width="76.1701" height="102.408" rx="5.87412" transform="matrix(-0.965495 -0.259842 -0.256781 0.966625 129.534 30.2806)" stroke="url(#paint6_linear_2054_55)" stroke-width="1.16191"/>
</g>
<rect width="17.8461" height="20.0295" rx="4.20178" transform="matrix(0.966934 0.255023 -0.251769 0.967788 65.9501 22.8779)" fill="url(#paint7_linear_2054_55)"/>
<line x1="1.29102" y1="-1.29102" x2="80.8824" y2="-1.29102" transform="matrix(0.258726 -0.966107 0.964916 0.261982 84.4064 115.842)" stroke="url(#paint8_linear_2054_55)" stroke-width="2.58203" stroke-linecap="round"/>
<line x1="1.29102" y1="-1.29102" x2="35.1807" y2="-1.29102" transform="matrix(0.257886 -0.966331 -0.951247 -0.307916 47.7192 105.528)" stroke="url(#paint9_linear_2054_55)" stroke-width="2.58203" stroke-linecap="round"/>
<defs>
<filter id="filter0_b_2054_55" x="22.0966" y="2.90351" width="116.196" height="135.115" filterUnits="userSpaceOnUse" color-interpolation-filters="sRGB">
<feFlood flood-opacity="0" result="BackgroundImageFix"/>
<feGaussianBlur in="BackgroundImageFix" stdDeviation="4.454"/>
<feComposite in2="SourceAlpha" operator="in" result="effect1_backgroundBlur_2054_55"/>
<feBlend mode="normal" in="SourceGraphic" in2="effect1_backgroundBlur_2054_55" result="shape"/>
</filter>
<linearGradient id="paint0_linear_2054_55" x1="16" y1="101.069" x2="0.689655" y2="102.241" gradientUnits="userSpaceOnUse">
<stop stop-color="#FF9800"/>
<stop offset="1" stop-color="#FFEACB"/>
</linearGradient>
<linearGradient id="paint1_linear_2054_55" x1="128" y1="121.069" x2="112.69" y2="122.241" gradientUnits="userSpaceOnUse">
<stop stop-color="#FF9800"/>
<stop offset="1" stop-color="#FFE4BD"/>
</linearGradient>
<linearGradient id="paint2_linear_2054_55" x1="147" y1="44" x2="36" y2="52.5" gradientUnits="userSpaceOnUse">
<stop stop-color="#FF9800" stop-opacity="0.73"/>
<stop offset="1" stop-color="#FFE2B8"/>
</linearGradient>
<linearGradient id="paint3_linear_2054_55" x1="33.6832" y1="80.4301" x2="86.4265" y2="36.1069" gradientUnits="userSpaceOnUse">
<stop stop-color="#FF9800" stop-opacity="0.57"/>
<stop offset="1" stop-color="#FFB74D" stop-opacity="0.77"/>
</linearGradient>
<linearGradient id="paint4_linear_2054_55" x1="47.7269" y1="112.094" x2="75.8916" y2="107.798" gradientUnits="userSpaceOnUse">
<stop stop-color="#FF9800" stop-opacity="0.6"/>
<stop offset="1" stop-color="#FF9800" stop-opacity="0.51"/>
</linearGradient>
<linearGradient id="paint5_linear_2054_55" x1="27.5612" y1="7.19392" x2="65.4141" y2="93.9885" gradientUnits="userSpaceOnUse">
<stop stop-color="#FF9800" stop-opacity="0.61"/>
<stop offset="1" stop-color="#FF9800" stop-opacity="0.43"/>
</linearGradient>
<linearGradient id="paint6_linear_2054_55" x1="38.666" y1="0" x2="38.666" y2="103.57" gradientUnits="userSpaceOnUse">
<stop stop-color="white"/>
<stop offset="1" stop-color="white" stop-opacity="0.24"/>
</linearGradient>
<linearGradient id="paint7_linear_2054_55" x1="8.92305" y1="0" x2="8.92305" y2="20.0295" gradientUnits="userSpaceOnUse">
<stop stop-color="#F4F3F8"/>
<stop offset="1" stop-color="#FAF9FB" stop-opacity="0.5"/>
</linearGradient>
<linearGradient id="paint8_linear_2054_55" x1="-9.15597" y1="0" x2="93.4521" y2="0" gradientUnits="userSpaceOnUse">
<stop stop-color="white" stop-opacity="0.67"/>
<stop offset="1" stop-color="white" stop-opacity="0"/>
</linearGradient>
<linearGradient id="paint9_linear_2054_55" x1="-4.06377" y1="0" x2="41.4776" y2="0" gradientUnits="userSpaceOnUse">
<stop stop-color="white" stop-opacity="0.67"/>
<stop offset="1" stop-color="white" stop-opacity="0"/>
</linearGradient>
<clipPath id="clip0_2054_55">
<rect width="69.7129" height="103.619" fill="white" transform="matrix(-0.999966 -0.00824321 -0.00857601 0.999963 86.6421 18.9219)"/>
</clipPath>
</defs>
</svg>
