<svg width="14" height="13" viewBox="0 0 14 13" fill="none" xmlns="http://www.w3.org/2000/svg">
<path d="M5.97182 1.37509C6.43821 0.600108 7.56177 0.600107 8.02816 1.37509L9.15169 3.24201C9.31924 3.52042 9.59254 3.71899 9.9091 3.7923L12.0318 4.28393C12.913 4.48801 13.2602 5.55658 12.6673 6.23963L11.2389 7.88508C11.0259 8.13046 10.9215 8.45174 10.9496 8.77547L11.138 10.9462C11.2162 11.8473 10.3072 12.5078 9.4744 12.1549L7.4681 11.3049C7.1689 11.1782 6.83108 11.1782 6.53188 11.3049L4.52558 12.1549C3.69274 12.5078 2.78376 11.8473 2.86197 10.9462L3.05036 8.77547C3.07846 8.45174 2.97407 8.13046 2.76106 7.88508L1.3327 6.23963C0.739771 5.55658 1.08697 4.48801 1.96814 4.28393L4.09088 3.7923C4.40744 3.71899 4.68074 3.52042 4.84829 3.24201L5.97182 1.37509Z" stroke="white" stroke-opacity="0.6" stroke-width="1.5"/>
</svg>
